%FSTAX26Y26*%
%MOMM*%
%SFA1B1*%

%IPPOS*%
%ADD46C,0.253999*%
%ADD70C,0.499999*%
%ADD71C,0.999998*%
%LNpcb1_keep-out-1*%
%LPD*%
G54D46*
X-83637983Y-14054988D02*
X-27637994D01*
D01*
X-2756822Y-1405255*
X-27498802Y-1404526*
X-27430069Y-14033144*
X-27362353Y-14016253*
X-27295957Y-13994688*
X-27231238Y-13968526*
X-27168525Y-13937945*
X-27108073Y-13903045*
X-27050212Y-13864005*
X-26995196Y-13821029*
X-26943329Y-13774318*
X-2689484Y-13724128*
X-26849984Y-13670661*
X-26808938Y-13614171*
X-26771955Y-13554989*
X-26739189Y-13493369*
X-26710792Y-13429589*
X-26686941Y-13364006*
X-26667688Y-132969*
X-26653185Y-13228624*
X-26643457Y-13159511*
X-26638605Y-1308989*
X-26637996Y-1305499*
Y-06054979D01*
X-22637978D02*
D01*
X-22642855Y-05915482*
X-2265746Y-05776645*
X-22681692Y-05639155*
X-22715474Y-05503722*
X-22758603Y-05370957*
X-22810901Y-05241518*
X-2287209Y-05116042*
X-22941889Y-04995138*
X-23019943Y-04879416*
X-23105897Y-04769408*
X-23199318Y-04665675*
X-23299724Y-04568698*
X-23406658Y-04478959*
X-23519612Y-04396917*
X-23637976Y-04322927*
X-23761242Y-04257395*
X-23888776Y-04200626*
X-24019941Y-04152874*
X-24154155Y-04114393*
X-2429068Y-04085361*
X-24428932Y-04065955*
X-245682Y-04056202*
X-24707773*
X-24847042Y-04065955*
X-24985294Y-04085361*
X-25121819Y-04114393*
X-25256032Y-04152874*
X-25387198Y-04200626*
X-25514731Y-04257395*
X-25637998Y-04322927*
X-25756362Y-04396917*
X-25869315Y-04478959*
X-25976249Y-04568698*
X-26076656Y-04665675*
X-26170077Y-04769408*
X-2625603Y-04879416*
X-26334085Y-04995138*
X-26403884Y-05116042*
X-26465072Y-05241518*
X-26517371Y-05370957*
X-265605Y-05503722*
X-26594282Y-05639155*
X-26618514Y-05776645*
X-26633119Y-05915482*
X-26637996Y-06054979*
X-22637978D02*
Y-1305499D01*
D01*
X-2263554Y-13124738*
X-2262825Y-13194157*
X-22616134Y-13262889*
X-22599243Y-13330631*
X-22577679Y-13397001*
X-22551542Y-1346172*
X-22520935Y-13524458*
X-22486035Y-1358491*
X-22446996Y-13642771*
X-22404019Y-13697762*
X-22357334Y-13749655*
X-22307118Y-13798143*
X-22253651Y-13843*
X-22197187Y-13884021*
X-22137979Y-13921003*
X-22076359Y-13953769*
X-22012605Y-13982166*
X-21946997Y-14006042*
X-21879915Y-1402527*
X-2181164Y-14039799*
X-21742527Y-14049502*
X-2167288Y-14054378*
X-2163798Y-14054988*
X34361983*
D01*
X34501505Y-14050111*
X34640342Y-14035532*
X34777807Y-14011275*
X34913265Y-13977518*
X35046031Y-13934363*
X35175469Y-1388209*
X3530092Y-13820876*
X35421824Y-13751077*
X35537546Y-13673023*
X35647553Y-13587069*
X35751312Y-13493673*
X35848264Y-13393242*
X35938002Y-13286308*
X3602007Y-13173379*
X36094035Y-1305499*
X36159567Y-12931724*
X36216361Y-1280419*
X36264088Y-12673025*
X36302569Y-12538837*
X36331601Y-12402286*
X36351032Y-12264034*
X3636076Y-12124791*
X36361979Y-12054992*
Y-05588*
X38481*
X38473913Y-05563997D02*
X42515358Y-12563983D01*
D01*
X4262633Y-12741554*
X42749419Y-12910972*
X42884013Y-13071373*
X43029479Y-13221995*
X4318508Y-13362127*
X43350078Y-13491032*
X43523687Y-13608126*
X43705018Y-13712825*
X43893232Y-1380462*
X44087389Y-13883055*
X44286525Y-13947775*
X444897Y-13998422*
X44695922Y-14034795*
X44904177Y-14056664*
X45113448Y-1406398*
X80870526*
D01*
X81079797Y-1405669*
X81288051Y-14034795*
X81494274Y-13998422*
X81697449Y-13947775*
X8189661Y-13883055*
X82090742Y-1380462*
X82278956Y-13712825*
X82460287Y-13608126*
X82633896Y-13491032*
X82798894Y-13362127*
X8295452Y-13221995*
X8309996Y-13071373*
X8323458Y-12910972*
X83357643Y-12741554*
X83468616Y-12563983*
X87510061Y-05563997D01*
D01*
X87608359Y-0537911*
X87693525Y-05187797*
X87765153Y-04991049*
X87822862Y-04789754*
X87866397Y-04584928*
X87895557Y-04377563*
X87910162Y-04168698*
Y-03959301*
X87895557Y-03750411*
X87866397Y-03543046*
X87822862Y-0333822*
X87765153Y-0313695*
X87693525Y-02940177*
X87608359Y-02748889*
X87510061Y-02564003*
X87399088Y-02386406*
X87276025Y-02217013*
X87141431Y-02056612*
X86995965Y-01905965*
X86964901Y-01876399*
X75309501Y09061475D01*
D01*
X7436391Y09888753*
X73362921Y1064801*
X72311387Y11335613*
X71214462Y11948185*
X70077482Y12482753*
X68905983Y12936702*
X67705655Y13307847*
X66482391Y13594334*
X65242084Y1379479*
X63990855Y13908252*
X62734723Y1393416*
X61479861Y13872362*
X60232366Y13723188*
X58998332Y13487349*
X5778373Y13166013*
X56594502Y12760731*
X55436465Y12273483*
X54315207Y11706656*
X53236241Y1106297*
X52204797Y10345597*
X51225932Y0955802*
X50674473Y09061475*
X39019073Y-01876399D01*
X36361979*
Y0269499*
D01*
X36357102Y02834487*
X36342523Y02973324*
X36318291Y03110814*
X36284509Y03246272*
X3624138Y03379038*
X36189081Y03508451*
X36127893Y03633927*
X36058094Y03754831*
X35980014Y03870553*
X35894086Y03980561*
X35800665Y04084294*
X35700258Y04181271*
X35593299Y0427101*
X35480371Y04353052*
X35361981Y04427042*
X3523874Y04492574*
X35111207Y04549343*
X34980016Y04597095*
X34845828Y04635576*
X34709277Y04664608*
X34571051Y04684039*
X34431782Y04693767*
X34361983Y04694986*
X33361985D01*
Y08194979D02*
D01*
X33239913Y08190712*
X33118425Y08177961*
X3299813Y08156752*
X32879614Y08127187*
X3276346Y08089442*
X32650201Y08043697*
X32540422Y07990154*
X32434631Y07929067*
X32333361Y07860766*
X32237121Y07785557*
X32146341Y0770382*
X3206148Y07615961*
X31982968Y07522387*
X31911163Y07423581*
X31846443Y07319975*
X3178909Y07212126*
X31739408Y07100544*
X3169765Y06985762*
X3166397Y06868363*
X3163857Y06748881*
X31621577Y06627901*
X31613043Y06506057*
Y06383909*
X31621577Y06262065*
X3163857Y0614111*
X3166397Y06021628*
X3169765Y05904204*
X31739408Y05789422*
X3178909Y05677839*
X31846443Y05569991*
X31911163Y0546641*
X31982968Y05367578*
X3206148Y05274005*
X32146341Y05186146*
X32237121Y05104409*
X32333361Y050292*
X32434631Y04960899*
X32540422Y04899837*
X32650201Y04846294*
X3276346Y04800523*
X32879614Y04762779*
X3299813Y04733239*
X33118425Y0471203*
X33239913Y04699254*
X33361985Y04694986*
X36361979Y10194975D02*
Y20944992D01*
D01*
X36357102Y21084489*
X36342523Y21223325*
X36318291Y21360815*
X36284509Y21496274*
X3624138Y21629039*
X36189081Y21758452*
X36127893Y21883928*
X36058094Y22004832*
X35980014Y22120555*
X35894086Y22230562*
X35800665Y22334296*
X35700258Y22431273*
X35593299Y22521011*
X35480371Y22603053*
X35361981Y22677043*
X3523874Y22742575*
X35111207Y22799344*
X34980016Y22847096*
X34845828Y22885577*
X34709277Y2291461*
X34571051Y22934041*
X34431782Y22943769*
X34361983Y22944988*
X-69637986D01*
D01*
X-69777508Y22940111*
X-69916344Y22925532*
X-70053809Y22901275*
X-70189267Y22867518*
X-70322033Y22824363*
X-70451472Y2277209*
X-70576922Y22710876*
X-70697826Y22641077*
X-70813549Y22563023*
X-70923556Y22477069*
X-71027315Y22383673*
X-71124267Y22283242*
X-71214005Y22176308*
X-71296072Y22063379*
X-71370037Y2194499*
X-71435569Y21821724*
X-71492364Y2169419*
X-7154009Y21563025*
X-71578571Y21428837*
X-71607603Y21292286*
X-71627034Y21154034*
X-71636763Y21014791*
X-71637982Y20944992*
Y19944994*
X-73637978Y17944998D02*
D01*
X-73498481Y17949849*
X-73359645Y17964454*
X-73222154Y17988686*
X-73086722Y18022468*
X-72953956Y18065597*
X-72824517Y18117896*
X-72699041Y18179084*
X-72578137Y18248884*
X-72462415Y18326963*
X-72352408Y18412891*
X-72248674Y18506313*
X-72151697Y18606719*
X-72061959Y18713653*
X-71979917Y18826607*
X-71905926Y18944996*
X-71840394Y19068237*
X-71783625Y1919577*
X-71735873Y19326961*
X-71697392Y19461149*
X-7166836Y195977*
X-71648955Y19735927*
X-71639201Y19875195*
X-71637982Y19944994*
X-73637978Y17944998D02*
X-76637997D01*
X-78637993Y19944994D02*
D01*
X-78633116Y19805472*
X-78618511Y19666635*
X-7859428Y19529171*
X-78560498Y19393712*
X-78517369Y19260947*
X-7846507Y19131508*
X-78403881Y19006032*
X-78334082Y18885154*
X-78256028Y18769406*
X-78170074Y18659424*
X-78076679Y18555665*
X-77976247Y18458688*
X-77869313Y18368975*
X-77756385Y18286907*
X-77637995Y18212943*
X-77514729Y18147411*
X-77387196Y18090616*
X-7725603Y18042864*
X-77121842Y18004383*
X-76985291Y17975376*
X-76847039Y17955945*
X-76707796Y17946217*
X-76637997Y17944998*
X-78637993Y19944994D02*
Y20944992D01*
D01*
X-7864287Y21084489*
X-7865745Y21223325*
X-78681681Y21360815*
X-78715463Y21496274*
X-78758592Y21629039*
X-78810891Y21758452*
X-7887208Y21883928*
X-78941879Y22004832*
X-79019958Y22120555*
X-79105887Y22230562*
X-79199308Y22334296*
X-79299714Y22431273*
X-79406673Y22521011*
X-79519602Y22603053*
X-79637991Y22677043*
X-79761232Y22742575*
X-79888765Y22799344*
X-80019956Y22847096*
X-80154145Y22885577*
X-80290695Y2291461*
X-80428922Y22934041*
X-8056819Y22943769*
X-80637989Y22944988*
X-83637983*
D01*
X-83777505Y22940111*
X-83916342Y22925532*
X-84053807Y22901275*
X-84189265Y22867518*
X-84322031Y22824363*
X-84451469Y2277209*
X-8457692Y22710876*
X-84697824Y22641077*
X-84813546Y22563023*
X-84923553Y22477069*
X-85027312Y22383673*
X-85124264Y22283242*
X-85214002Y22176308*
X-8529607Y22063379*
X-85370035Y2194499*
X-85435567Y21821724*
X-85492361Y2169419*
X-85540088Y21563025*
X-85578569Y21428837*
X-85607601Y21292286*
X-85627032Y21154034*
X-8563676Y21014791*
X-85637979Y20944992*
Y10194975*
D01*
X-85633102Y10055479*
X-85618523Y09916642*
X-85594291Y09779152*
X-85560509Y09643719*
X-8551738Y09510953*
X-85465081Y09381515*
X-85403893Y09256039*
X-85334094Y0913516*
X-85256014Y09019413*
X-85170086Y08909405*
X-85076665Y08805672*
X-84976258Y08708694*
X-84869299Y08618956*
X-84756371Y08536914*
X-84637981Y08462924*
X-8451474Y08397392*
X-84387207Y08340623*
X-84256016Y08292871*
X-84121828Y0825439*
X-83985277Y08225383*
X-83847051Y08205952*
X-83707782Y08196199*
X-83637983Y08194979*
X-82637985*
Y04694986D02*
D01*
X-82515913Y04699254*
X-82394425Y0471203*
X-8227413Y04733239*
X-82155614Y04762779*
X-8203946Y04800523*
X-81926201Y04846294*
X-81816422Y04899837*
X-81710631Y04960899*
X-81609361Y050292*
X-81513121Y05104409*
X-81422341Y05186146*
X-8133748Y05274005*
X-81258968Y05367578*
X-81187163Y0546641*
X-81122443Y05569991*
X-8106509Y05677839*
X-81015408Y05789422*
X-8097365Y05904204*
X-8093997Y06021628*
X-8091457Y0614111*
X-80897577Y06262065*
X-80889043Y06383909*
Y06506057*
X-80897577Y06627901*
X-8091457Y06748881*
X-8093997Y06868363*
X-8097365Y06985762*
X-81015408Y07100544*
X-8106509Y07212126*
X-81122443Y07319975*
X-81187163Y07423581*
X-81258968Y07522387*
X-8133748Y07615961*
X-81422341Y0770382*
X-81513121Y07785557*
X-81609361Y07860766*
X-81710631Y07929067*
X-81816422Y07990154*
X-81926201Y08043697*
X-8203946Y08089442*
X-82155614Y08127187*
X-8227413Y08156752*
X-82394425Y08177961*
X-82515913Y08190712*
X-82637985Y08194979*
Y04694986D02*
X-83637983D01*
D01*
X-83777505Y0469011*
X-83916342Y0467553*
X-84053807Y04651273*
X-84189265Y04617516*
X-84322031Y04574362*
X-84451469Y04522089*
X-8457692Y04460875*
X-84697824Y04391075*
X-84813546Y04313021*
X-84923553Y04227068*
X-85027312Y04133672*
X-85124264Y0403324*
X-85214002Y03926306*
X-8529607Y03813378*
X-85370035Y03694988*
X-85435567Y03571722*
X-85492361Y03444189*
X-85540088Y03313023*
X-85578569Y03178835*
X-85607601Y03042285*
X-85627032Y02904032*
X-8563676Y0276479*
X-85637979Y0269499*
Y-12054992D01*
D01*
X-85633102Y-12194489*
X-85618523Y-12333325*
X-85594291Y-12470815*
X-85560509Y-12606274*
X-8551738Y-12739039*
X-85465081Y-12868452*
X-85403893Y-12993928*
X-85334094Y-13114832*
X-85256014Y-13230555*
X-85170086Y-13340562*
X-85076665Y-13444296*
X-84976258Y-13541273*
X-84869299Y-13631011*
X-84756371Y-13713053*
X-84637981Y-13787043*
X-8451474Y-13852575*
X-84387207Y-13909344*
X-84256016Y-13957096*
X-84121828Y-13995577*
X-83985277Y-1402461*
X-83847051Y-14044041*
X-83707782Y-14053769*
X-83637983Y-14054988*
X33361985Y08194979D02*
X34361983D01*
D01*
X34501505Y08199856*
X34640342Y08214461*
X34777807Y08238693*
X34913265Y08272475*
X35046031Y08315604*
X35175469Y08367902*
X3530092Y08429091*
X35421824Y0849889*
X35537546Y08576945*
X35647553Y08662898*
X35751312Y08756319*
X35848264Y08856726*
X35938002Y0896366*
X3602007Y09076613*
X36094035Y09194977*
X36159567Y09318244*
X36216361Y09445777*
X36264088Y09576943*
X36302569Y09711131*
X36331601Y09847681*
X36351032Y09985933*
X3636076Y10125176*
X36361979Y10194975*
G54D70*
X42771999Y-04064D02*
D01*
X42767834Y-03945407*
X42755439Y-03827399*
X42734839Y-03710533*
X42706137Y-03595395*
X4266946Y-03482543*
X4262501Y-03372535*
X4257299Y-03265881*
X42513656Y-03163112*
X42447311Y-03064764*
X42374261Y-02971241*
X4229486Y-02883077*
X42209516Y-02800629*
X4211861Y-02724378*
X42022623Y-0265463*
X41921988Y-02591739*
X41817213Y-02536037*
X41708806Y-02487777*
X41597326Y-02447188*
X41483254Y-02414473*
X41367176Y-02389809*
X41249676Y-02373299*
X41131312Y-02365019*
X41012668*
X40894279Y-02373299*
X40776779Y-02389809*
X40660726Y-02414473*
X40546655Y-02447188*
X40435149Y-02487777*
X40326767Y-02536037*
X40221992Y-02591739*
X40121357Y-0265463*
X4002537Y-02724378*
X39934464Y-02800629*
X3984912Y-02883077*
X39769719Y-02971241*
X39696669Y-03064764*
X39630299Y-03163112*
X39570964Y-03265881*
X39518971Y-03372535*
X39474521Y-03482543*
X39437843Y-03595395*
X39409141Y-03710533*
X39388542Y-03827399*
X39376121Y-03945407*
X39371981Y-04064*
X39376121Y-04182567*
X39388542Y-04300575*
X39409141Y-04417441*
X39437843Y-04532579*
X39474521Y-04645431*
X39518971Y-04755438*
X39570964Y-04862093*
X39630299Y-04964861*
X39696669Y-0506321*
X39769719Y-05156733*
X3984912Y-05244896*
X39934464Y-05327345*
X4002537Y-05403596*
X40121357Y-05473344*
X40221992Y-05536234*
X40326767Y-05591937*
X40435149Y-05640197*
X40546655Y-05680786*
X40660726Y-05713501*
X40776779Y-05738164*
X40894279Y-05754674*
X41012668Y-05762955*
X41131312*
X41249676Y-05754674*
X41367176Y-05738164*
X41483254Y-05713501*
X41597326Y-05680786*
X41708806Y-05640197*
X41817213Y-05591937*
X41921988Y-05536234*
X42022623Y-05473344*
X4211861Y-05403596*
X42209516Y-05327345*
X4229486Y-05244896*
X42374261Y-05156733*
X42447311Y-0506321*
X42513656Y-04964861*
X4257299Y-04862093*
X4262501Y-04755438*
X4266946Y-04645431*
X42706137Y-04532579*
X42734839Y-04417441*
X42755439Y-04300575*
X42767834Y-04182567*
X42771999Y-04064*
X86611993D02*
D01*
X86607853Y-03945407*
X86595432Y-03827399*
X86574833Y-03710533*
X86546131Y-03595395*
X86509453Y-03482543*
X86465003Y-03372535*
X86413009Y-03265881*
X86353675Y-03163112*
X86287305Y-03064764*
X86214254Y-02971241*
X86134854Y-02883077*
X8604951Y-02800629*
X85958603Y-02724378*
X85862617Y-0265463*
X85761982Y-02591739*
X85657207Y-02536037*
X85548825Y-02487777*
X85437319Y-02447188*
X85323248Y-02414473*
X85207195Y-02389809*
X85089695Y-02373299*
X84971305Y-02365019*
X84852662*
X84734298Y-02373299*
X84616798Y-02389809*
X8450072Y-02414473*
X84386648Y-02447188*
X84275168Y-02487777*
X8416676Y-02536037*
X84061985Y-02591739*
X83961351Y-0265463*
X83865364Y-02724378*
X83774457Y-02800629*
X83689113Y-02883077*
X83609713Y-02971241*
X83536663Y-03064764*
X83470318Y-03163112*
X83410983Y-03265881*
X83358964Y-03372535*
X83314514Y-03482543*
X83277837Y-03595395*
X83249135Y-03710533*
X83228535Y-03827399*
X8321614Y-03945407*
X83211974Y-04064*
X8321614Y-04182567*
X83228535Y-04300575*
X83249135Y-04417441*
X83277837Y-04532579*
X83314514Y-04645431*
X83358964Y-04755438*
X83410983Y-04862093*
X83470318Y-04964861*
X83536663Y-0506321*
X83609713Y-05156733*
X83689113Y-05244896*
X83774457Y-05327345*
X83865364Y-05403596*
X83961351Y-05473344*
X84061985Y-05536234*
X8416676Y-05591937*
X84275168Y-05640197*
X84386648Y-05680786*
X8450072Y-05713501*
X84616798Y-05738164*
X84734298Y-05754674*
X84852662Y-05762955*
X84971305*
X85089695Y-05754674*
X85207195Y-05738164*
X85323248Y-05713501*
X85437319Y-05680786*
X85548825Y-05640197*
X85657207Y-05591937*
X85761982Y-05536234*
X85862617Y-05473344*
X85958603Y-05403596*
X8604951Y-05327345*
X86134854Y-05244896*
X86214254Y-05156733*
X86287305Y-0506321*
X86353675Y-04964861*
X86413009Y-04862093*
X86465003Y-04755438*
X86509453Y-04645431*
X86546131Y-04532579*
X86574833Y-04417441*
X86595432Y-04300575*
X86607853Y-04182567*
X86611993Y-04064*
G54D71*
X-30637988Y-11554993D02*
D01*
X-30635549Y-11624741*
X-30628259Y-1169416*
X-30616144Y-11762892*
X-30599253Y-11830634*
X-30577688Y-11897004*
X-30551526Y-11961723*
X-30520944Y-12024461*
X-30486045Y-12084913*
X-30447005Y-12142774*
X-30404028Y-12197765*
X-30357318Y-12249658*
X-30307127Y-12298121*
X-3025366Y-12343003*
X-30197171Y-12384024*
X-30137989Y-12421006*
X-30076368Y-12453772*
X-30012589Y-12482169*
X-29947006Y-12506045*
X-29879899Y-12525273*
X-29811624Y-12539802*
X-29742511Y-12549505*
X-29672889Y-12554381*
X-2960309*
X-29533469Y-12549505*
X-2946433Y-12539802*
X-29396055Y-12525273*
X-29328973Y-12506045*
X-2926339Y-12482169*
X-29199611Y-12453772*
X-29137991Y-12421006*
X-29078783Y-12384024*
X-29022319Y-12343003*
X-28968852Y-12298121*
X-28918636Y-12249658*
X-28871951Y-12197765*
X-28828974Y-12142774*
X-28789934Y-12084913*
X-28755035Y-12024461*
X-28724453Y-11961723*
X-28698291Y-11897004*
X-28676727Y-11830634*
X-28659836Y-11762892*
X-2864772Y-1169416*
X-2864043Y-11624741*
X-28637992Y-11554993*
Y-08554999D01*
D01*
X-2864043Y-08485225*
X-2864772Y-08415807*
X-28659836Y-08347074*
X-28676727Y-08279358*
X-28698291Y-08212963*
X-28724453Y-08148243*
X-28755035Y-08085505*
X-28789934Y-08025079*
X-28828974Y-07967192*
X-28871951Y-07912201*
X-28918636Y-07860334*
X-28968852Y-07811846*
X-29022319Y-07766964*
X-29078783Y-07725943*
X-29137991Y-07688961*
X-29199611Y-07656195*
X-2926339Y-07627797*
X-29328973Y-07603921*
X-29396055Y-07584694*
X-2946433Y-0757019*
X-29533469Y-07560462*
X-2960309Y-07555585*
X-29672889*
X-29742511Y-07560462*
X-29811624Y-0757019*
X-29879899Y-07584694*
X-29947006Y-07603921*
X-30012589Y-07627797*
X-30076368Y-07656195*
X-30137989Y-07688961*
X-30197171Y-07725943*
X-3025366Y-07766964*
X-30307127Y-07811846*
X-30357318Y-07860334*
X-30404028Y-07912201*
X-30447005Y-07967192*
X-30486045Y-08025079*
X-30520944Y-08085505*
X-30551526Y-08148243*
X-30577688Y-08212963*
X-30599253Y-08279358*
X-30616144Y-08347074*
X-30628259Y-08415807*
X-30635549Y-08485225*
X-30637988Y-08554999*
Y-11554993D01*
X-20637982D02*
Y-08554999D01*
X-18637986D02*
D01*
X-18640425Y-08485225*
X-18647714Y-08415807*
X-1865983Y-08347074*
X-18676721Y-08279358*
X-18698286Y-08212963*
X-18724448Y-08148243*
X-18755029Y-08085505*
X-18789929Y-08025079*
X-18828969Y-07967192*
X-18871946Y-07912201*
X-18918656Y-07860334*
X-18968847Y-07811846*
X-19022314Y-07766964*
X-19078803Y-07725943*
X-19137985Y-07688961*
X-19199606Y-07656195*
X-19263385Y-07627797*
X-19328968Y-07603921*
X-19396075Y-07584694*
X-1946435Y-0757019*
X-19533463Y-07560462*
X-19603085Y-07555585*
X-19672884*
X-19742505Y-07560462*
X-19811644Y-0757019*
X-19879919Y-07584694*
X-19947001Y-07603921*
X-20012583Y-07627797*
X-20076363Y-07656195*
X-20137983Y-07688961*
X-20197191Y-07725943*
X-20253655Y-07766964*
X-20307122Y-07811846*
X-20357338Y-07860334*
X-20404023Y-07912201*
X-20447Y-07967192*
X-20486039Y-08025079*
X-20520939Y-08085505*
X-20551521Y-08148243*
X-20577683Y-08212963*
X-20599247Y-08279358*
X-20616138Y-08347074*
X-20628254Y-08415807*
X-20635544Y-08485225*
X-20637982Y-08554999*
X-18637986D02*
Y-11554993D01*
X-20637982D02*
D01*
X-20635544Y-11624741*
X-20628254Y-1169416*
X-20616138Y-11762892*
X-20599247Y-11830634*
X-20577683Y-11897004*
X-20551521Y-11961723*
X-20520939Y-12024461*
X-20486039Y-12084913*
X-20447Y-12142774*
X-20404023Y-12197765*
X-20357338Y-12249658*
X-20307122Y-12298121*
X-20253655Y-12343003*
X-20197191Y-12384024*
X-20137983Y-12421006*
X-20076363Y-12453772*
X-20012583Y-12482169*
X-19947001Y-12506045*
X-19879919Y-12525273*
X-19811644Y-12539802*
X-19742505Y-12549505*
X-19672884Y-12554381*
X-19603085*
X-19533463Y-12549505*
X-1946435Y-12539802*
X-19396075Y-12525273*
X-19328968Y-12506045*
X-19263385Y-12482169*
X-19199606Y-12453772*
X-19137985Y-12421006*
X-19078803Y-12384024*
X-19022314Y-12343003*
X-18968847Y-12298121*
X-18918656Y-12249658*
X-18871946Y-12197765*
X-18828969Y-12142774*
X-18789929Y-12084913*
X-18755029Y-12024461*
X-18724448Y-11961723*
X-18698286Y-11897004*
X-18676721Y-11830634*
X-1865983Y-11762892*
X-18647714Y-1169416*
X-18640425Y-11624741*
X-18637986Y-11554993*
M02*