%FSTAX26Y26*%
%MOMM*%
%SFA1B1*%

%IPPOS*%
%ADD10R,0.999998X1.449997*%
%ADD15O,1.749997X2.499995*%
%ADD16C,1.019998*%
%ADD17C,1.569997*%
%ADD18R,1.569997X1.569997*%
%ADD19C,1.499997*%
%ADD20R,1.499997X1.499997*%
%ADD21C,2.999994*%
%ADD22C,1.519997*%
%ADD23R,1.519997X1.519997*%
%LNpcb1_pads_top-1*%
%LPD*%
G54D10*
X-65213992Y12827D03*
X-63563982D03*
G54D15*
X-74254995Y-09652D03*
X-71755D03*
X-7675499D03*
X-74254995Y-0254D03*
X-71755D03*
X-7675499D03*
X-56347995Y17399D03*
X-53848D03*
X-45318984D03*
X-42818989D03*
X-31709995Y10033D03*
X-2921D03*
X-22987D03*
X-20486979D03*
X-1524Y10668D03*
X-127D03*
X-05547995Y17526D03*
X-03048D03*
X22558984Y-0254D03*
X25058979D03*
X27559D03*
X25058979Y-09652D03*
X27559D03*
X22558984D03*
X28956Y13208D03*
X26416D03*
X47791979Y-10414D03*
X50292D03*
X52791995D03*
X58987969D03*
X61487989D03*
X63987984D03*
X66487979D03*
X72683979D03*
X75184D03*
X77683995D03*
X77810995Y-02667D03*
X75311D03*
X69428995D03*
X66928999D03*
X64428979D03*
X58547D03*
X56046979D03*
X50165D03*
X47664979D03*
X-26709979Y17399D03*
X-2921D03*
X-31709995D03*
X-3420999D03*
X-63519989D03*
X-66019984D03*
G54D16*
X-38048996Y00254D03*
X-11049D03*
G54D17*
X-35048977Y01193977D03*
X-32048983D03*
X-29048989D03*
X-26048995D03*
X-23048976D03*
X-20048982D03*
X-17048988D03*
X-14048994D03*
Y04193997D03*
X-17048988D03*
X-20048982D03*
X-23048976D03*
X-26048995D03*
X-29048989D03*
X-32048983D03*
G54D18*
X-35048977Y04193997D03*
G54D19*
X-58039Y-01778D03*
X-55499D03*
X-52959D03*
X-47117D03*
X-44577D03*
X-42037D03*
X-44577Y00762D03*
Y04953D03*
X-47117D03*
Y00762D03*
X-55499Y04953D03*
X-58039D03*
Y00762D03*
X-55499D03*
X-07239Y-01651D03*
X-04699D03*
X-02159D03*
X-04699Y00889D03*
Y0508D03*
X-07239D03*
Y00889D03*
G54D20*
X-52959Y00762D03*
Y04953D03*
X-42037Y00762D03*
Y04953D03*
X-02159Y00889D03*
Y0508D03*
G54D21*
X54627983Y09272981D03*
X71307985D03*
G54D22*
X52467992Y0195298D03*
X55467986D03*
X5846798D03*
X61468D03*
X64467994D03*
X67467988D03*
X70467982D03*
X73467976D03*
Y04953D03*
X70467982D03*
X67467988D03*
X64467994D03*
X61468D03*
X5846798D03*
X55467986D03*
G54D23*
X52467992Y04953D03*
M02*