%FSTAX26Y26*%
%MOMM*%
%SFA1B1*%

%IPPOS*%
%ADD15O,1.749997X2.499995*%
%ADD16C,1.019998*%
%ADD17C,1.569997*%
%ADD18R,1.569997X1.569997*%
%ADD19C,1.499997*%
%ADD20R,1.499997X1.499997*%
%ADD21C,2.999994*%
%ADD22C,1.519997*%
%ADD23R,1.519997X1.519997*%
%ADD28R,1.799996X1.299997*%
%ADD29R,1.699997X2.499995*%
%ADD30R,1.199998X1.199998*%
%ADD31R,1.199998X1.199998*%
%ADD32R,3.499993X1.799996*%
%ADD33R,0.769998X0.799998*%
%ADD34R,1.499997X1.599997*%
%ADD35R,1.599997X0.609999*%
%ADD36R,2.619995X3.509993*%
%ADD37R,0.899998X0.399999*%
%ADD38R,1.299997X1.799996*%
%ADD39R,0.649999X0.799998*%
%ADD40R,3.499993X2.349995*%
%ADD41R,0.699999X0.999998*%
%ADD42R,0.799998X0.649999*%
%LNpcb1_pads_bot-1*%
%LPD*%
G54D15*
X-74254995Y-09652D03*
X-71755D03*
X-7675499D03*
X-74254995Y-0254D03*
X-71755D03*
X-7675499D03*
X-56347995Y17399D03*
X-53848D03*
X-45318984D03*
X-42818989D03*
X-31709995Y10033D03*
X-2921D03*
X-22987D03*
X-20486979D03*
X-1524Y10668D03*
X-127D03*
X-05547995Y17526D03*
X-03048D03*
X22558984Y-0254D03*
X25058979D03*
X27559D03*
X25058979Y-09652D03*
X27559D03*
X22558984D03*
X28956Y13208D03*
X26416D03*
X47791979Y-10414D03*
X50292D03*
X52791995D03*
X58987969D03*
X61487989D03*
X63987984D03*
X66487979D03*
X72683979D03*
X75184D03*
X77683995D03*
X77810995Y-02667D03*
X75311D03*
X69428995D03*
X66928999D03*
X64428979D03*
X58547D03*
X56046979D03*
X50165D03*
X47664979D03*
X-26709979Y17399D03*
X-2921D03*
X-31709995D03*
X-3420999D03*
X-63519989D03*
X-66019984D03*
G54D16*
X-38048996Y00254D03*
X-11049D03*
G54D17*
X-35048977Y01193977D03*
X-32048983D03*
X-29048989D03*
X-26048995D03*
X-23048976D03*
X-20048982D03*
X-17048988D03*
X-14048994D03*
Y04193997D03*
X-17048988D03*
X-20048982D03*
X-23048976D03*
X-26048995D03*
X-29048989D03*
X-32048983D03*
G54D18*
X-35048977Y04193997D03*
G54D19*
X-58039Y-01778D03*
X-55499D03*
X-52959D03*
X-47117D03*
X-44577D03*
X-42037D03*
X-44577Y00762D03*
Y04953D03*
X-47117D03*
Y00762D03*
X-55499Y04953D03*
X-58039D03*
Y00762D03*
X-55499D03*
X-07239Y-01651D03*
X-04699D03*
X-02159D03*
X-04699Y00889D03*
Y0508D03*
X-07239D03*
Y00889D03*
G54D20*
X-52959Y00762D03*
Y04953D03*
X-42037Y00762D03*
Y04953D03*
X-02159Y00889D03*
Y0508D03*
G54D21*
X54627983Y09272981D03*
X71307985D03*
G54D22*
X52467992Y0195298D03*
X55467986D03*
X5846798D03*
X61468D03*
X64467994D03*
X67467988D03*
X70467982D03*
X73467976D03*
Y04953D03*
X70467982D03*
X67467988D03*
X64467994D03*
X61468D03*
X5846798D03*
X55467986D03*
G54D23*
X52467992Y04953D03*
G54D28*
X08255Y0261399D03*
Y05513984D03*
G54D29*
X19685Y03841978D03*
Y07841996D03*
G54D30*
X-47403994Y09906D03*
X-58325994D03*
X-07525994Y10033D03*
G54D31*
X-5546598Y09906D03*
X-4454398D03*
X-0466598Y10033D03*
X08357996Y18049976D03*
Y20049998D03*
G54D32*
X13716076Y02395982D03*
Y09795992D03*
G54D33*
X-50292Y09297974D03*
X-49331981Y12037999D03*
X-51251993D03*
X-40329993D03*
X-3937Y09297974D03*
X-38409981Y12037999D03*
X-00451993Y12164999D03*
X01467993D03*
X00508Y09424974D03*
G54D34*
X11607977Y1905D03*
G54D35*
X11176Y11938D03*
X16575989D03*
Y13208D03*
Y14478D03*
Y15748D03*
X11176D03*
Y14478D03*
Y13208D03*
G54D36*
X13875994Y13843D03*
G54D37*
X-54441979Y12034977D03*
Y13335D03*
X-56642D03*
Y12684988D03*
Y12034977D03*
X-45676997Y12049988D03*
X-43476976D03*
Y13349986D03*
X-45676997D03*
Y127D03*
X-05798997Y12176988D03*
X-03598976D03*
Y13476986D03*
X-05798997D03*
Y12827D03*
G54D38*
X-71172984Y03937D03*
X-6827299D03*
Y06477D03*
X-71172984D03*
G54D39*
X-68975986Y12827D03*
X-67675988D03*
X08112988Y14478D03*
X09412986D03*
Y16002D03*
X08112988D03*
X18526988Y16256D03*
Y14732D03*
X19826986D03*
Y16256D03*
X19796988Y13208D03*
X21096986D03*
G54D40*
X-63627Y03070987D03*
Y09120987D03*
G54D41*
X-69910985Y09075978D03*
X-68961D03*
X-68010989D03*
Y11274983D03*
X-68961Y11275009D03*
X-69910985D03*
G54D42*
X-47752Y12176988D03*
Y13476986D03*
X-52832Y13349986D03*
Y12049988D03*
Y10682986D03*
Y09382988D03*
X-58674Y13476986D03*
Y12176988D03*
X-71501Y10428986D03*
Y09128988D03*
X-4191Y09398D03*
Y10697997D03*
Y12049988D03*
Y13349986D03*
X-07874Y13603986D03*
Y12303988D03*
X-01905Y12176988D03*
Y10809986D03*
Y09509988D03*
Y13476986D03*
X08255Y11795988D03*
Y13095986D03*
X13462Y17383988D03*
Y18683986D03*
X17018D03*
Y17383988D03*
X19304Y11952986D03*
Y10652988D03*
X25273Y07477988D03*
X26924D03*
Y08777986D03*
X25273D03*
M02*